<?xml version="1.0" encoding="UTF-8"?>
<svg id="Camada_2" data-name="Camada 2" xmlns="http://www.w3.org/2000/svg" viewBox="0 0 100.65 100.90">
  <defs>
    <style>

      .cls-1, .cls-2, .cls-3, .cls-4, .cls-5, .cls-6, .cls-7, .cls-8, .cls-9, .cls-10, .cls-11 {
        stroke-width: 0px;
      }
      .cls-3 {
        fill: #26b8d7;
      }
      .cls-7 {
        fill: #25b4d3;
      }
    </style>
  </defs>
  <g id="Camada_1-2" data-name="Camada 1">
    <g>
      <path class="cls-3" d="M37.96,101.36c-2.02.19-3.4-.89-4.75-2.24-10.33-10.36-20.66-20.72-31.06-31.01-2.52-2.49-2.82-4.69-.95-7.88C12.14,41.67,22.85,22.97,33.68,4.33c3.39-5.84,4.84-5.77,8.28.17,10.63,18.36,21.17,36.78,31.99,55.03,2.17,3.66,2.04,6.17-.95,9.11-10.19,10.02-20.24,20.18-30.32,30.31-1.32,1.33-2.67,2.52-4.7,2.41ZM68.79,63.77c-.06-1.81-1.31-3.13-2.61-4.43-8-7.98-16.04-15.92-23.98-23.95-3.05-3.08-5.74-3.28-8.89-.07-7.91,8.06-15.92,16.02-24,23.92-3.11,3.04-3.38,5.74-.18,8.89,8.18,8.03,16.3,16.12,24.33,24.3,2.95,3.01,5.57,3.03,8.49.08,8.07-8.14,16.21-16.21,24.31-24.33,1.17-1.18,2.29-2.42,2.52-4.4Z"/>
      <path class="cls-7" d="M31.74,48.44c.43-3.74,2.12-6.09,5.9-6.19,3.81-.1,5.88,2.21,5.99,5.75.11,3.61-2.1,6.01-5.73,6.06-3.59.06-5.62-2.22-6.16-5.62Z"/>
      <path class="cls-7" d="M37.84,84.25c-3.51-.37-5.85-2.13-5.95-5.87-.09-3.74,2.14-5.93,5.73-6.06,3.67-.13,5.92,2.15,6.02,5.76.09,3.62-2.05,5.72-5.8,6.17Z"/>
      <path class="cls-7" d="M28.24,63.66c-.37,4.22-2.7,6.31-6.25,6.1-3.55-.21-5.8-2.56-5.48-6.37.29-3.45,2.32-5.43,5.92-5.38,3.92.06,5.51,2.46,5.82,5.65Z"/>
      <path class="cls-7" d="M58.89,63.41c-.13,4-2.27,6.28-5.83,6.36-3.6.08-6.04-2.25-6.04-5.92,0-3.32,1.93-5.65,5.54-5.81,3.81-.17,5.74,1.98,6.33,5.37Z"/>
    </g>
  </g>
</svg>